<svg xmlns="http://www.w3.org/2000/svg" viewBox="0 0 773.36 762.59"><defs><style>.cls-1{fill:#fff;}</style></defs><title>dulce_logo</title><g id="Layer_3" data-name="Layer 3"><path class="cls-1" d="M177.73,564.31c2.82,1.29,1.52,3.24-1.52,3-7.57-.65-26-7.37-24-20.58,0-.64-.43-2.38-.43-3.46,0-52.84,126.24-68,162.41-39,11.91,9.75,16.89,22.74,16.89,36.38,0,46.34-45.91,81-89.87,81-14.73,0-29.23-3.46-39.2-11-1.08,1.51-9.52,19.49-15.37,19.49-11,0-12.78-16.89-12.78-20.14a145.08,145.08,0,0,1,1.95-23.17c.22-2-.86-3.9-1.73-6.07a4.56,4.56,0,0,1,1.52-4.33c2.16-1.51,7.57-3.25,9.09-2.16.87.65.87,1.73-.43,4.76-1.74,3.68-1.74,2.82-1.74,6.93,0,5,14.08,16.24,14.95,16.46,3.68-9.1,16.24-35.73,22.08-47.86,2.82-5.63,1.95-7.8,1.52-8.88,1.3-7.14,23-33.56,34.22-33.56,2.59,0,11.69,2.16,12.77,7.79.22,2.82-1.08.65-2.6.65-20.14,0-52.4,66.7-61.5,86.19,31.4,23.17,77.31.86,99-25.34,32-38.76,23.17-85.75-35.09-87.48C221,492.84,159.54,519.48,159.54,549.8,159.54,560.62,172.75,561.92,177.73,564.31Zm3.68,29.88c0,2.81-.21,15.16,1.73,25.12,2.6,13.42,10.4-9.31,11.48-11.91C191.37,604.58,185.31,597.65,181.41,594.19Z"/><path class="cls-1" d="M405.1,613c-7.15,5.2-23,10.39-27.28-2.6-1.95-5.85.65-20.36,3.68-27.93-3.25,2.16-16.68,33.56-34.43,33.56-4.34,0-12.35-2.81-15.16-7.36-5-8-.22-24.26,7.58-36.17,3-4.76,8.44-12.77,10.39-13.42a21.27,21.27,0,0,1,11.69,0c2.6,1.08,1.09,3.25-.43,4.33-4.76,4.33-15.81,15.81-21.22,30.32-6.93,18.4,2.81,23.38,18,11.26,8-6.5,17.33-19.06,25.34-30.75,3.9-5.63,11.26-19.49,14.07-23.82,2.82,0,13.43,1.94,11.26,5.84-2.59,4.33-10.61,17.76-13.42,23.39a67.26,67.26,0,0,0-6.93,21.44c-1.3,9.31,3,14.29,10.18,10.61,6.93-3.9,23.17-17.54,32.05-30.1,1.08-1.52,3.89-.22,2.81,1.73C429.14,590.94,415.93,605.23,405.1,613Z"/><path class="cls-1" d="M435.63,595.92c-1.3,10.61,1.73,22.31,14.29,15.16,8.45-4.55,24.47-19.06,31.83-29.45,1.09-1.52,3.69-.22,2.39,2.16-4.33,7.58-18,21.88-28.8,29.89a23.12,23.12,0,0,1-13.43,4.76c-13,0-16.89-7.36-16.46-17.32,1.3-21.66,27.5-73.41,41.58-92,8.23-10.61,18-23.6,32.7-23.6,9.74,0,16.89,7.58,9.09,21.66-17.75,31-43.31,56.3-70.37,78.82A52.58,52.58,0,0,0,435.63,595.92Zm6.06-18.62c21.23-14.51,49.81-52,61.29-74.06,5.84-10.61.86-15.59-8.67-8.45-13.2,10.18-24.25,25.77-33.56,42.45-2.38,4.33-8,15.37-13,25.12C445.37,567.34,443.43,572.53,441.69,577.3Z"/><path class="cls-1" d="M504.06,618.66c-20.79,3.68-36.38-7.15-26.64-29.67,6.5-14.72,40.06-43.09,56.3-37.68,3.9,1.3,7.15,4.12,5.63,9.75-.21,1.3-3.9,9.31-5.41,7.36a2.28,2.28,0,0,1-.87-2.38c.22-1.52,1.09-3,1.09-4.33,0-2-1.09-4.33-3.25-4.33-11,0-37.9,22.08-43.74,41.79-5,16,7.57,17.32,19.92,13.86,19.49-5.63,30.1-15.59,42.44-31.4,1.08-1.3,2.17-.43,2.6-.43,1.08.43.43,2.38,0,3.24C539.79,601.12,525.49,615,504.06,618.66Z"/><path class="cls-1" d="M567.28,592c-3.24.22-4.76-2.81-1.51-3,6.93-.65,19.05-7.58,27.07-14.07,3.68-2.82,10.17-9.32,9.74-14.08-.22-6.06-8-2.82-11-1.3-12.78,5.85-31.4,23.82-36.17,39.63C550,617.36,566.63,617.58,580.71,612c16-6.5,29.88-18.19,37.68-30.1.86-1.09,2-1.09,2.38-.65,1.08.43,1.08,1.51.22,2.59a81.44,81.44,0,0,1-37.47,32.49c-22.08,8.87-49.8,0-37.89-27.29,6.49-14.72,40.06-43.09,56.3-37.68,8.88,3,7.58,14.08,3.47,20.14C597.6,582.93,577,591.16,567.28,592Z"/><path class="cls-1" d="M318.9,661.11l-.34.26a20,20,0,0,0-7.75-9,21.32,21.32,0,0,0-11.37-3.1,22.27,22.27,0,0,0-9.05,1.81,19.36,19.36,0,0,0-7.06,5.25,25.44,25.44,0,0,0-4.65,8.36,37.47,37.47,0,0,0,.09,22.22,25.29,25.29,0,0,0,4.65,8.35,19.5,19.5,0,0,0,7.15,5.26,22.26,22.26,0,0,0,8.95,1.81,20.6,20.6,0,0,0,12.15-3.79,23.35,23.35,0,0,0,8-10.25l4.74,1.38a25.38,25.38,0,0,1-24.9,17.31,28.37,28.37,0,0,1-10.93-2.16,24.37,24.37,0,0,1-8.7-6.37,30.12,30.12,0,0,1-5.69-9.9,41.64,41.64,0,0,1,0-25.93,28.84,28.84,0,0,1,5.77-9.9,25.29,25.29,0,0,1,8.79-6.29,26.89,26.89,0,0,1,10.94-2.24,26,26,0,0,1,14.47,4.13,26.6,26.6,0,0,1,9.64,11.54Z"/><path class="cls-1" d="M380.23,688.06H351.89l-6.8,17.58h-5.17l23.86-60.29h4.56l23.86,60.29H387Zm-1.55-4.39-10.17-25.75c-.68-1.72-1.11-3.27-1.55-4.65a7.76,7.76,0,0,0-.77-2.07h-.09a8.21,8.21,0,0,0-.77,2.07c-.43,1.38-.86,2.93-1.55,4.65l-10,25.75Z"/><path class="cls-1" d="M418.3,650v22.82h23.51v4.57H418.3v28.25h-4.91V645.35H448V650Z"/><path class="cls-1" d="M505.21,701v4.66H469.46V645.35h35.23V650H474.37v21.1h24.12v4.56H474.37V701ZM482,639l-1.81-3,16.28-9.56,2.07,3.53Z"/><path class="cls-1" d="M499.76,85A144.72,144.72,0,0,0,455,60.89c-6.26-2.12-12.91-3.38-20.2-5.23,2.48,3.37,7,10.61,6.73,20.1A29.41,29.41,0,0,1,439.73,85,37.79,37.79,0,0,1,431,94.56c-7.36,5.73-15.23,7.67-21.88,9.23-19.32,4.5-28.72,6.25-45,9.5-10.71,2.14-20.91,5.09-29.43,11.23-8.92,6.43-13,14.67-13.08,24.85.92-.19,1.22-.19,1.28-.28.57-.94,1.13-1.89,1.65-2.86,4.26-8,10.33-14.82,20.22-18a204.77,204.77,0,0,1,26.37-6.67c15.75-2.83,31.8-4.56,47.52-7.51,21.46-4,33.81-16.14,36.74-34.67.18-1.12,26.71,9.76,33.76,21.28,3.87,6.31,4.67,12.94,1.55,19.74-5.46,11.89-17,18.79-29.8,23-16.87,5.49-34.82,8.65-52.21,13.07-10.9,2.78-21.2,6.53-28.14,14.87-6.24,7.48-4.6,20.53,4.79,27.13.49-3.69,1-6.7,1.26-9.73.76-8.94,6.14-15.09,15.75-18.2A98.76,98.76,0,0,1,418.82,167c13.83-1.94,27.91-2.93,41.56-5.49,23.35-4.38,39.79-17.28,50.16-34.77C519.08,112.38,513.65,96.18,499.76,85Z"/><path class="cls-1" d="M523.78,144.2c5.35,3.92,11.33,7.38,16,11.85,22.08,21.34,21.18,46.67-1.84,66.84-10.9,9.57-24.06,14-39.92,13.85-21.07-.15-41.08-5.33-61.46-9-20-3.58-40.15-7.16-60.37-1.85-5.15,1.36-10.05,3.39-15.08,5.08a15.7,15.7,0,0,1-5.25.95c7.05-8.37,16.72-13.4,27.89-16.69,17.36-5.11,35.15-4,52.92-1.81,18.51,2.28,36.87,5.68,55.42,7.43,27.87,2.63,46.47-16.3,49.46-34,2.24-13.29-5.5-24.27-14.34-34.67-1.8-2.12-3.53-4.29-5.3-6.43Z"/><path class="cls-1" d="M355.67,243.46c-2,.72-3.05,1.48-4.09,1.44-17.28-.62-34-2-48.79-11.8-21.38-14.24-25.28-50.21.16-68.53,18.21-13.11,40.22-17.4,63.25-19.41,1-.09,2.16.55,3.33,1.85-4.68,1.12-9.42,2.12-14,3.39-20.36,5.62-38.43,14-49.14,30.67-13,20.27-6.82,43.52,21.31,54.07C336.28,238.37,345.47,240.47,355.67,243.46Z"/><path class="cls-1" d="M554.33,236.58c-1.32-3.91-5.29-8.51-9.11-11,.35.66.59,1.11.82,1.56,2.73,5.35,2.21,10.49-1.07,15.39s-8.12,8.39-13.24,11.31c-11.14,6.34-23.24,10.08-35.61,13.05a301.42,301.42,0,0,1-49.84,7.25,389.1,389.1,0,0,1-51.22.2c-22.63-1.42-45-4.47-66.7-11.32-9.23-2.91-18.25-6.41-26.16-12.12a42,42,0,0,1-8-7.52c-4.84-6-4.68-12.83,0-19A34.57,34.57,0,0,1,301.9,217a12.78,12.78,0,0,1-2.2-3.51,101.32,101.32,0,0,0-16.59,8.17,41.61,41.61,0,0,0-11.61,10.06,17.9,17.9,0,0,0-4,11.6c.07,2.64,0,5.29,0,8-3.46-1.1-6.71-2.33-10.06-3.14-9.63-2.33-18.94-1.67-27.69,3.39-7.08,4.09-10.62,10.47-11.72,18.35-1.28,9.26.39,18.21,3.7,26.78,11,28.51,30.18,49.77,57.21,64a1.26,1.26,0,0,0,.85.14c-2.39-2.29-4.83-4.53-7.17-6.87-11.81-11.83-22.52-24.52-30.52-39.3-4.36-8.06-7.81-16.5-8.55-25.73a43.41,43.41,0,0,1,.58-11.94c1.43-7,7.43-11.2,15.11-11.43a21.43,21.43,0,0,1,21.86,17.94c5.05,27.86,15,53.82,30.91,77.32,14,20.64,31.48,37.63,53.66,49.42A116.68,116.68,0,0,0,422,423.91a118.75,118.75,0,0,0,49.18-15.73,1.56,1.56,0,0,0,.71-.76c-1.43.51-2.85,1.05-4.28,1.53-35,11.84-68.48,8.16-100.16-10.52-24.84-14.64-43.5-35.41-57.26-60.62-11.94-21.87-19-45.31-22.08-70a7.89,7.89,0,0,1-.06-1c0-.1.06-.2.15-.48l3.91,1.86c13.59,6.37,27.95,10.3,42.61,13.23,29.12,5.82,58.56,7.67,88.2,7a379,379,0,0,0,63.84-6.62c14.29-2.79,28.33-6.47,41.69-12.38,3.9-1.73,7.66-3.79,11.85-5.89C537.5,311.2,524,354.66,493,391.84c1.83-1.54,3.7-3,5.48-4.62,17.36-15.44,30.1-34.18,39.4-55.33,10.42-23.7,15.8-48.57,17.05-74.38.23-4.7.57-9.41.55-14.11A21.75,21.75,0,0,0,554.33,236.58Z"/><path class="cls-1" d="M529.31,453.72c-5.6,1-11.19,2-16.8,2.87-14.42,2.29-28.94,3.63-43.5,4.48a575.17,575.17,0,0,1-61.31.3c-25.11-1.24-50.07-3.75-74.55-9.75-9.34-2.28-18.51-5.07-27-9.65a29.33,29.33,0,0,1-8.77-6.63c-3.62-4.27-3.62-8.82.07-13.06,3.31-3.81,7.65-6.17,12.13-8.28,2.1-1,4.26-1.86,6.34-3-.58.11-1.18.21-1.75.35-9.22,2.3-18.36,4.91-26.78,9.41a41.47,41.47,0,0,0-8.38,5.8c-5.36,4.88-5.25,10.44,0,15.5,3.48,3.37,7.7,5.6,12.07,7.54,10.07,4.47,20.66,7.21,31.4,9.44A394.88,394.88,0,0,0,374.94,466a576.79,576.79,0,0,0,73.32.53c23.85-1.33,47.55-3.93,70.79-9.7,3.47-.86,6.88-1.9,10.32-2.86Z"/></g></svg>