<svg xmlns="http://www.w3.org/2000/svg" viewBox="0 0 773.36 762.59"><defs><style>.cls-1{fill:#ff5a83;}</style></defs><title>dulce_favicon</title><g id="Layer_3" data-name="Layer 3"><path class="cls-1" d="M285.15,640.25l-.5.38a29.1,29.1,0,0,0-11.28-13.16A30.91,30.91,0,0,0,256.83,623a32.4,32.4,0,0,0-13.16,2.64,28,28,0,0,0-10.28,7.64,37,37,0,0,0-6.77,12.16,54.66,54.66,0,0,0,.13,32.33,36.63,36.63,0,0,0,6.77,12.16,28.4,28.4,0,0,0,10.4,7.65,32.38,32.38,0,0,0,13,2.63,29.87,29.87,0,0,0,17.68-5.52,33.85,33.85,0,0,0,11.65-14.91l6.9,2c-3,8-7.65,14.28-14,18.67A38.19,38.19,0,0,1,257,706.93,41.34,41.34,0,0,1,241,703.79a35.63,35.63,0,0,1-12.66-9.27,43.74,43.74,0,0,1-8.27-14.41,60.62,60.62,0,0,1,0-37.73A42,42,0,0,1,228.5,628a37,37,0,0,1,12.79-9.15,39.3,39.3,0,0,1,15.92-3.26,37.64,37.64,0,0,1,21.05,6,38.64,38.64,0,0,1,14,16.79Z"/><path class="cls-1" d="M374.4,679.48H333.16l-9.9,25.57h-7.52l34.72-87.73h6.64l34.72,87.73H384.3Zm-2.26-6.39-14.79-37.48c-1-2.5-1.63-4.76-2.26-6.76a11.45,11.45,0,0,0-1.12-3h-.13a11.2,11.2,0,0,0-1.13,3c-.62,2-1.25,4.26-2.25,6.76l-14.54,37.48Z"/><path class="cls-1" d="M429.79,624.08v33.21H464v6.65H429.79v41.11h-7.14V617.32H473v6.76Z"/><path class="cls-1" d="M556.26,698.28v6.77h-52V617.32h51.26v6.76H511.39v30.71h35.09v6.64H511.39v36.85Zm-33.84-90.14-2.63-4.39,23.68-13.91,3,5.14Z"/><path class="cls-1" d="M533.37,93.7c-17-13.68-36.52-24-58.09-31.25-8.12-2.75-16.75-4.38-26.2-6.79,3.22,4.38,9.06,13.77,8.73,26.07a38.37,38.37,0,0,1-2.31,12,48.88,48.88,0,0,1-11.28,12.35c-9.54,7.44-19.76,10-28.38,12-25.06,5.85-37.26,8.11-58.32,12.32C343.63,133.2,330.4,137,319.35,145c-11.58,8.35-16.9,19-17,32.25,1.19-.26,1.58-.25,1.66-.38.74-1.21,1.47-2.44,2.13-3.7,5.53-10.42,13.41-19.23,26.23-23.35a266,266,0,0,1,34.21-8.65c20.44-3.67,41.26-5.92,61.64-9.75,27.84-5.22,43.86-20.93,47.67-45,.23-1.46,34.65,12.65,43.79,27.59,5,8.2,6.06,16.79,2,25.61-7.08,15.43-22,24.38-38.65,29.78-21.89,7.12-45.17,11.23-67.73,17-14.14,3.6-27.5,8.47-36.51,19.29-8.09,9.71-6,26.63,6.22,35.2.63-4.79,1.3-8.7,1.63-12.63,1-11.59,8-19.58,20.43-23.6a126.82,126.82,0,0,1,21.26-4.5c17.94-2.52,36.21-3.79,53.91-7.12,30.29-5.68,51.62-22.41,65.08-45.11C558.43,129.24,551.39,108.22,533.37,93.7Z"/><path class="cls-1" d="M564.53,170.52c6.94,5.09,14.7,9.57,20.69,15.37,28.64,27.68,27.47,60.53-2.38,86.71-14.15,12.4-31.22,18.11-51.79,18-27.34-.19-53.29-6.92-79.73-11.65-25.93-4.65-52.09-9.29-78.31-2.4-6.69,1.76-13,4.4-19.57,6.59a20.46,20.46,0,0,1-6.81,1.24c9.15-10.86,21.69-17.39,36.19-21.66,22.51-6.63,45.59-5.2,68.65-2.35,24,3,47.82,7.37,71.89,9.64,36.14,3.41,60.28-21.14,64.15-44.11,2.91-17.25-7.12-31.49-18.59-45-2.34-2.75-4.59-5.56-6.88-8.35Z"/><path class="cls-1" d="M346.45,299.28c-2.57.94-3.95,1.91-5.3,1.86-22.42-.8-44.14-2.55-63.29-15.31-27.74-18.47-32.8-65.13.21-88.89,23.62-17,52.17-22.57,82-25.18,1.34-.12,2.8.71,4.32,2.4-6.07,1.46-12.21,2.75-18.21,4.4-26.41,7.29-49.85,18.12-63.74,39.78-16.86,26.3-8.85,56.46,27.64,70.14C321.31,292.68,333.23,295.4,346.45,299.28Z"/><path class="cls-1" d="M604.16,290.36c-1.71-5.08-6.87-11.05-11.82-14.33.45.85.77,1.44,1.07,2,3.53,6.93,2.86,13.61-1.4,19.95s-10.52,10.89-17.17,14.68c-14.44,8.22-30.15,13.08-46.19,16.93A391.63,391.63,0,0,1,464,339a506.19,506.19,0,0,1-66.44.25c-29.35-1.84-58.36-5.8-86.52-14.68-12-3.78-23.68-8.31-33.93-15.73a54.06,54.06,0,0,1-10.4-9.75c-6.28-7.81-6.07-16.64,0-24.65a45,45,0,0,1,10-9.5,16.65,16.65,0,0,1-2.85-4.55A130.55,130.55,0,0,0,252.33,271c-5.7,3.55-11,7.63-15.07,13.05a23.27,23.27,0,0,0-5.18,15.05c.1,3.43,0,6.86,0,10.33-4.48-1.41-8.7-3-13-4.07-12.48-3-24.57-2.16-35.92,4.4-9.19,5.31-13.78,13.58-15.2,23.8-1.66,12,.51,23.62,4.8,34.75,14.25,37,39.16,64.56,74.21,83a1.62,1.62,0,0,0,1.11.19c-3.11-3-6.27-5.88-9.3-8.92-15.33-15.33-29.22-31.79-39.59-51-5.66-10.46-10.14-21.41-11.1-33.38a56.21,56.21,0,0,1,.76-15.49c1.86-9,9.63-14.52,19.6-14.82a27.79,27.79,0,0,1,28.36,23.26c6.54,36.15,19.4,69.82,40.09,100.3,18.18,26.79,40.83,48.82,69.6,64.11,26.9,14.3,55.57,20.44,86,17.75A154,154,0,0,0,496.24,513a1.89,1.89,0,0,0,.92-1c-1.85.66-3.69,1.36-5.55,2-45.4,15.36-88.83,10.59-129.92-13.64-32.23-19-56.43-45.93-74.29-78.64-15.49-28.37-24.59-58.78-28.64-90.77-.05-.41-.07-.84-.08-1.26a3,3,0,0,1,.2-.62c1.71.82,3.38,1.63,5.07,2.42,17.63,8.25,36.26,13.35,55.27,17.15,37.78,7.56,76,10,114.42,9A492.09,492.09,0,0,0,516.46,349c18.53-3.63,36.75-8.4,54.08-16.06,5.06-2.24,9.93-4.92,15.37-7.64-3.59,61.81-21.08,118.18-61.29,166.42,2.37-2,4.79-3.93,7.11-6,22.51-20,39-44.34,51.1-71.79,13.53-30.73,20.5-63,22.12-96.47.3-6.1.74-12.21.72-18.31A28.64,28.64,0,0,0,604.16,290.36Z"/><path class="cls-1" d="M571.7,572c-7.26,1.24-14.51,2.56-21.79,3.71-18.7,3-37.54,4.71-56.43,5.81A742.93,742.93,0,0,1,414,582c-32.58-1.6-64.95-4.87-96.71-12.64-12.11-3-24-6.58-35.07-12.52a38.14,38.14,0,0,1-11.38-8.6c-4.7-5.54-4.7-11.44.08-16.94,4.31-4.94,9.93-8,15.74-10.75,2.72-1.29,5.53-2.4,8.23-3.85-.76.15-1.53.27-2.28.46-12,3-23.81,6.36-34.73,12.2A54.13,54.13,0,0,0,247,536.84c-6.95,6.32-6.8,13.54,0,20.1,4.51,4.37,10,7.27,15.66,9.79,13.06,5.79,26.8,9.35,40.73,12.25a513.73,513.73,0,0,0,68.13,9,749,749,0,0,0,95.11.69c30.95-1.72,61.68-5.1,91.84-12.59,4.49-1.11,8.92-2.46,13.38-3.71Z"/></g></svg>